<svg id="Capa_1" enable-background="new 0 0 510 510" height="512" viewBox="0 0 510 510" width="512" xmlns="http://www.w3.org/2000/svg"><g><path d="m150 150.449h-150v300h45v59.102l94.311-59.102h40.689l10-106.971-10-103.029z" fill="#76e2f8"/><path d="m281 230.475-101 9.968v210.006h180v-210.006z" fill="#4bb9ec"/><path d="m150 .449v240h180l10-125-10-115z" fill="#fd9"/><path d="m330 .449v240h40.688l94.312 59.102v-59.102h45v-240z" fill="#fb3"/><path d="m210 60.449v30h120l10-15-10-15z" fill="#ff8c53"/><path d="m330 60.449h75v30h-75z" fill="#ff4d4d"/><path d="m210 120.449v30h120l10-15-10-15z" fill="#ff8c53"/><path d="m105 300.449v30h75l10-15-10-15z" fill="#d9f2ff"/><path d="m180 300.449h120v30h-120z" fill="#cdf"/><path d="m60 390.449h120l10-15-10-15h-120z" fill="#d9f2ff"/><path d="m180 360.449h120v30h-120z" fill="#cdf"/><path d="m330 120.449h120v30h-120z" fill="#ff4d4d"/></g></svg>