<svg id="Capa_1" enable-background="new 0 0 490 490" height="512" viewBox="0 0 490 490" width="512" xmlns="http://www.w3.org/2000/svg"><g><circle cx="245" cy="245" fill="#d54980" r="245"/><g><path d="m481.92 57.47v250.15c-7.23 27.46-19.12 53.03-34.76 75.82h-404.32c-14.1-20.54-25.14-43.34-32.48-67.74v-258.23c0-16.27 13.19-29.47 29.46-29.47h412.64c16.27 0 29.46 13.2 29.46 29.47z" fill="#444562"/><path d="m469.763 57.889v263.47c0 9.61-6.32 17.41-14.11 17.41h-419.02c-7.8 0-14.11-7.8-14.11-17.41v-263.47c0-9.62 6.31-17.41 14.11-17.41h419.02c7.79 0 14.11 7.79 14.11 17.41z" fill="#fff"/><path d="m153.519 383.443h185.242v72.536h-185.242z" fill="#232441"/><path d="m381.63 448.39c-5.18 3.49-10.51 6.79-15.97 9.88h-241.32c-4.91-2.78-9.72-5.73-14.41-8.83 9.7-14.63 26.2-23.72 44.19-23.72h184.04c10.68 0 20.85 3.21 29.37 8.88 5.47 3.64 10.27 8.31 14.1 13.79z" fill="#444562"/><path d="m469.763 57.889v20.679h-447.24v-20.679c0-9.62 6.31-17.41 14.11-17.41h419.02c7.79 0 14.11 7.79 14.11 17.41z" fill="#d3d2d2"/><g><circle cx="46.003" cy="59.524" fill="#d54d4d" r="11"/><circle cx="77.503" cy="59.524" fill="#eab43f" r="11"/><circle cx="109.003" cy="59.524" fill="#9bb240" r="11"/></g><g><path d="m338.07 168.54v103.577c0 27.616-41.163 50.003-91.926 50.003-21.008 0-40.372-3.843-55.846-10.286-21.937-9.143-36.08-23.53-36.08-39.716v-110.007l36.08 1.257z" fill="#593375"/><path d="m338.07 168.536v103.585c0 9.199-4.568 17.821-12.55 25.225-7.844 7.291-18.988 13.403-32.315 17.72-13.767 4.48-29.868 7.053-47.061 7.053-10.768 0-21.109-1.004-30.709-2.861v-155.014l77.77 2.723 32.315 1.129z" fill="#704f85"/><path d="m398.551 176.187v14.742c.03 4.341-2.178 8.697-6.608 11.038l-130.2 68.744c-4.874 2.578-10.238 3.867-15.601 3.867s-10.726-1.289-15.601-3.867l-130.2-68.744c-4.43-2.341-6.637-6.697-6.608-11.038v-14.742h13.897l122.91-64.892c4.874-2.578 10.238-3.867 15.601-3.867s10.726 1.289 15.601 3.867l122.91 64.892z" fill="#593375"/><path d="m315.421 167.742v137.237c-6.371 3.971-13.867 7.378-22.223 10.089v-148.097z" fill="#8d71b3"/><path d="m398.552 176.187v14.744c.031 4.336-2.177 8.697-6.607 11.036l-62.956 33.238-9.953 5.257-57.295 30.246c-4.871 2.582-10.233 3.869-15.596 3.869v-167.15c5.362 0 10.725 1.288 15.596 3.869l122.913 64.891z" fill="#8d71b3"/><path d="m391.946 165.221-130.198-68.739c-9.765-5.155-21.445-5.155-31.21 0l-130.198 68.739c-8.814 4.653-8.814 17.277 0 21.931l130.198 68.739c9.765 5.155 21.445 5.155 31.21 0l130.198-68.739c8.814-4.653 8.814-17.277 0-21.931z" fill="#704f85"/><path d="m328.989 215.777v19.428l-9.953 5.257v-21.742l-72.891-40.057-6.756-3.714c-2.408-1.325-3.285-4.348-1.96-6.756 1.319-2.408 4.348-3.291 6.756-1.966l1.96 1.076 80.269 44.113c1.586.871 2.575 2.544 2.575 4.361z" fill="#704f85"/><ellipse cx="246.143" cy="176.187" fill="#8d71b3" rx="16.297" ry="10.371"/><path d="m328.37 285.794c-2.749 0-4.977-2.228-4.977-4.977v-56.499l-79.647-43.77c-2.409-1.324-3.288-4.349-1.965-6.758 1.324-2.408 4.349-3.289 6.759-1.965l82.226 45.188c1.591.874 2.58 2.546 2.58 4.361v59.442c0 2.749-2.228 4.978-4.976 4.978z" fill="#f6e06e"/><path d="m347.172 327.337c0-10.385-8.419-35.978-18.805-35.978s-18.805 25.592-18.805 35.978 8.419 1.631 18.805 1.631 18.805 8.754 18.805-1.631z" fill="#f6e06e"/><path d="m322.148 327.337c0 1.008.025 1.841.075 2.513-7.366 1.928-12.66 5.723-12.66-2.513 0-10.383 8.423-35.976 18.806-35.976-3.434 0-6.221 25.593-6.221 35.976z" fill="#dcbe34"/><circle cx="328.37" cy="280.817" fill="#fff" r="13.656"/><path d="m333.345 293.533c-1.543.61-3.222.939-4.977.939-7.546 0-13.655-6.115-13.655-13.655s6.109-13.655 13.655-13.655c1.754 0 3.434.33 4.977.939-5.082 1.984-8.678 6.93-8.678 12.716s3.596 10.731 8.678 12.716z" fill="#f1f1f1"/></g></g></g></svg>